<?xml version="1.0" encoding="utf-8"?>
<!-- Generator: Adobe Illustrator 23.0.0, SVG Export Plug-In . SVG Version: 6.00 Build 0)  -->
<svg version="1.1" id="Layer_1" xmlns="http://www.w3.org/2000/svg" xmlns:xlink="http://www.w3.org/1999/xlink" x="0px" y="0px"
	 viewBox="0 0 395 395" style="enable-background:new 0 0 395 395;" xml:space="preserve">
<style type="text/css">
	.st0{fill:none;stroke:#009FEC;stroke-width:10;stroke-linecap:round;stroke-miterlimit:10;}
	.st1{fill:none;stroke:#00F2C3;stroke-width:3;stroke-linecap:round;stroke-miterlimit:10;}
	.st2{display:none;}
	.st3{display:inline;}
	.st4{fill:#009FEC;}
</style>
<line class="st0" x1="197.4" y1="20" x2="197.4" y2="45.4"/>
<line class="st0" x1="197.4" y1="349.6" x2="197.4" y2="375"/>
<line class="st0" x1="374.9" y1="197.5" x2="349.5" y2="197.5"/>
<line class="st0" x1="45.3" y1="197.5" x2="19.9" y2="197.5"/>
<line class="st1" x1="360.5" y1="291.7" x2="338.5" y2="279"/>
<line class="st1" x1="56.3" y1="116" x2="34.3" y2="103.3"/>
<line class="st1" x1="360.5" y1="103.3" x2="338.5" y2="116"/>
<line class="st1" x1="56.3" y1="279" x2="34.3" y2="291.7"/>
<line class="st1" x1="279.8" y1="340.1" x2="292.5" y2="362.1"/>
<line class="st1" x1="113.1" y1="51.5" x2="100.4" y2="29.5"/>
<line class="st1" x1="292.5" y1="32.9" x2="279.8" y2="54.9"/>
<line class="st1" x1="114.6" y1="341" x2="101.9" y2="363"/>
<g class="st2">
	<g id="Layer_1-2" class="st3">
		<g>
			<path class="st4" d="M197.5,5c26,0,51.2,5.1,74.9,15.1c22.9,9.7,43.5,23.6,61.2,41.3c17.7,17.7,31.6,38.3,41.3,61.2
				c10,23.7,15.1,48.9,15.1,74.9s-5.1,51.2-15.1,74.9c-9.7,22.9-23.6,43.5-41.3,61.2c-17.7,17.7-38.3,31.6-61.2,41.3
				c-23.7,10-48.9,15.1-74.9,15.1s-51.2-5.1-74.9-15.1c-22.9-9.7-43.5-23.6-61.2-41.3c-17.7-17.7-31.6-38.3-41.3-61.2
				C10.1,248.7,5,223.5,5,197.5s5.1-51.2,15.1-74.9c9.7-22.9,23.6-43.5,41.3-61.2c17.7-17.7,38.3-31.6,61.2-41.3
				C146.3,10.1,171.5,5,197.5,5 M197.5,0C88.4,0,0,88.4,0,197.5S88.4,395,197.5,395S395,306.6,395,197.5S306.6,0,197.5,0L197.5,0z"
				/>
		</g>
	</g>
</g>
</svg>
